<mxfile host="app.diagrams.net" modified="2023-10-29T11:01:30.243Z" agent="Mozilla/5.0 (Windows NT 10.0; Win64; x64) AppleWebKit/537.36 (KHTML, like Gecko) Chrome/118.0.0.0 Safari/537.36" etag="X7zq4rp1Z5l3rvOHT27k" version="22.0.8" type="device">
  <diagram id="kb4qOua6qw6-X7gEVWb_" name="Page-1">
    <mxGraphModel dx="581" dy="346" grid="1" gridSize="10" guides="1" tooltips="1" connect="1" arrows="1" fold="1" page="1" pageScale="1" pageWidth="827" pageHeight="1169" math="0" shadow="0">
      <root>
        <mxCell id="0" />
        <mxCell id="1" parent="0" />
        <mxCell id="nVU7OAm-_Q35DiYOs5Vs-27" style="edgeStyle=orthogonalEdgeStyle;rounded=0;orthogonalLoop=1;jettySize=auto;html=1;exitX=1;exitY=0.5;exitDx=0;exitDy=0;entryX=0;entryY=0.5;entryDx=0;entryDy=0;" parent="1" source="nVU7OAm-_Q35DiYOs5Vs-7" edge="1">
          <mxGeometry relative="1" as="geometry">
            <mxPoint x="560" y="340" as="targetPoint" />
            <Array as="points">
              <mxPoint x="530" y="280" />
              <mxPoint x="530" y="340" />
            </Array>
          </mxGeometry>
        </mxCell>
        <mxCell id="nVU7OAm-_Q35DiYOs5Vs-7" value="" style="ellipse;whiteSpace=wrap;html=1;glass=1;strokeColor=default;" parent="1" vertex="1">
          <mxGeometry x="440" y="250" width="60" height="60" as="geometry" />
        </mxCell>
        <mxCell id="nVU7OAm-_Q35DiYOs5Vs-11" value="" style="group" parent="1" vertex="1" connectable="0">
          <mxGeometry x="349" y="240" width="50" height="80" as="geometry" />
        </mxCell>
        <mxCell id="nVU7OAm-_Q35DiYOs5Vs-1" value="" style="rounded=0;whiteSpace=wrap;html=1;rotation=-90;strokeColor=default;perimeterSpacing=0;glass=1;strokeWidth=1;" parent="nVU7OAm-_Q35DiYOs5Vs-11" vertex="1">
          <mxGeometry x="-15" y="15" width="80" height="50" as="geometry" />
        </mxCell>
        <mxCell id="nVU7OAm-_Q35DiYOs5Vs-2" value="" style="endArrow=none;html=1;rounded=0;" parent="nVU7OAm-_Q35DiYOs5Vs-11" edge="1">
          <mxGeometry width="50" height="50" relative="1" as="geometry">
            <mxPoint x="10" y="70" as="sourcePoint" />
            <mxPoint x="10" y="10" as="targetPoint" />
          </mxGeometry>
        </mxCell>
        <mxCell id="nVU7OAm-_Q35DiYOs5Vs-8" value="" style="endArrow=none;html=1;rounded=0;" parent="nVU7OAm-_Q35DiYOs5Vs-11" edge="1">
          <mxGeometry width="50" height="50" relative="1" as="geometry">
            <mxPoint x="20" y="70" as="sourcePoint" />
            <mxPoint x="20" y="10" as="targetPoint" />
          </mxGeometry>
        </mxCell>
        <mxCell id="nVU7OAm-_Q35DiYOs5Vs-9" value="" style="endArrow=none;html=1;rounded=0;" parent="nVU7OAm-_Q35DiYOs5Vs-11" edge="1">
          <mxGeometry width="50" height="50" relative="1" as="geometry">
            <mxPoint x="30" y="70" as="sourcePoint" />
            <mxPoint x="30" y="10" as="targetPoint" />
          </mxGeometry>
        </mxCell>
        <mxCell id="nVU7OAm-_Q35DiYOs5Vs-10" value="" style="endArrow=none;html=1;rounded=0;" parent="nVU7OAm-_Q35DiYOs5Vs-11" edge="1">
          <mxGeometry width="50" height="50" relative="1" as="geometry">
            <mxPoint x="40" y="70" as="sourcePoint" />
            <mxPoint x="40" y="10" as="targetPoint" />
          </mxGeometry>
        </mxCell>
        <mxCell id="nVU7OAm-_Q35DiYOs5Vs-28" style="edgeStyle=orthogonalEdgeStyle;rounded=0;orthogonalLoop=1;jettySize=auto;html=1;entryX=0;entryY=0.5;entryDx=0;entryDy=0;" parent="1" source="nVU7OAm-_Q35DiYOs5Vs-12" edge="1">
          <mxGeometry relative="1" as="geometry">
            <mxPoint x="560" y="340" as="targetPoint" />
            <Array as="points">
              <mxPoint x="530" y="400" />
              <mxPoint x="530" y="340" />
            </Array>
          </mxGeometry>
        </mxCell>
        <mxCell id="nVU7OAm-_Q35DiYOs5Vs-12" value="" style="ellipse;whiteSpace=wrap;html=1;glass=1;strokeColor=default;" parent="1" vertex="1">
          <mxGeometry x="440" y="370" width="60" height="60" as="geometry" />
        </mxCell>
        <mxCell id="nVU7OAm-_Q35DiYOs5Vs-13" value="" style="group" parent="1" vertex="1" connectable="0">
          <mxGeometry x="349" y="360" width="50" height="80" as="geometry" />
        </mxCell>
        <mxCell id="nVU7OAm-_Q35DiYOs5Vs-14" value="" style="rounded=0;whiteSpace=wrap;html=1;rotation=-90;strokeColor=default;perimeterSpacing=0;glass=1;strokeWidth=1;" parent="nVU7OAm-_Q35DiYOs5Vs-13" vertex="1">
          <mxGeometry x="-15" y="15" width="80" height="50" as="geometry" />
        </mxCell>
        <mxCell id="nVU7OAm-_Q35DiYOs5Vs-15" value="" style="endArrow=none;html=1;rounded=0;" parent="nVU7OAm-_Q35DiYOs5Vs-13" edge="1">
          <mxGeometry width="50" height="50" relative="1" as="geometry">
            <mxPoint x="10" y="70" as="sourcePoint" />
            <mxPoint x="10" y="10" as="targetPoint" />
          </mxGeometry>
        </mxCell>
        <mxCell id="nVU7OAm-_Q35DiYOs5Vs-16" value="" style="endArrow=none;html=1;rounded=0;" parent="nVU7OAm-_Q35DiYOs5Vs-13" edge="1">
          <mxGeometry width="50" height="50" relative="1" as="geometry">
            <mxPoint x="20" y="70" as="sourcePoint" />
            <mxPoint x="20" y="10" as="targetPoint" />
          </mxGeometry>
        </mxCell>
        <mxCell id="nVU7OAm-_Q35DiYOs5Vs-17" value="" style="endArrow=none;html=1;rounded=0;" parent="nVU7OAm-_Q35DiYOs5Vs-13" edge="1">
          <mxGeometry width="50" height="50" relative="1" as="geometry">
            <mxPoint x="30" y="70" as="sourcePoint" />
            <mxPoint x="30" y="10" as="targetPoint" />
          </mxGeometry>
        </mxCell>
        <mxCell id="nVU7OAm-_Q35DiYOs5Vs-18" value="" style="endArrow=none;html=1;rounded=0;" parent="nVU7OAm-_Q35DiYOs5Vs-13" edge="1">
          <mxGeometry width="50" height="50" relative="1" as="geometry">
            <mxPoint x="40" y="70" as="sourcePoint" />
            <mxPoint x="40" y="10" as="targetPoint" />
          </mxGeometry>
        </mxCell>
        <mxCell id="nVU7OAm-_Q35DiYOs5Vs-21" style="edgeStyle=orthogonalEdgeStyle;rounded=0;orthogonalLoop=1;jettySize=auto;html=1;entryX=0.5;entryY=0;entryDx=0;entryDy=0;" parent="1" target="nVU7OAm-_Q35DiYOs5Vs-1" edge="1">
          <mxGeometry relative="1" as="geometry">
            <mxPoint x="280" y="340" as="sourcePoint" />
          </mxGeometry>
        </mxCell>
        <mxCell id="nVU7OAm-_Q35DiYOs5Vs-22" style="edgeStyle=orthogonalEdgeStyle;rounded=0;orthogonalLoop=1;jettySize=auto;html=1;entryX=0.5;entryY=0;entryDx=0;entryDy=0;" parent="1" target="nVU7OAm-_Q35DiYOs5Vs-14" edge="1">
          <mxGeometry relative="1" as="geometry">
            <mxPoint x="280" y="340" as="sourcePoint" />
          </mxGeometry>
        </mxCell>
        <mxCell id="nVU7OAm-_Q35DiYOs5Vs-23" style="edgeStyle=orthogonalEdgeStyle;rounded=0;orthogonalLoop=1;jettySize=auto;html=1;entryX=0;entryY=0.5;entryDx=0;entryDy=0;" parent="1" source="nVU7OAm-_Q35DiYOs5Vs-1" target="nVU7OAm-_Q35DiYOs5Vs-7" edge="1">
          <mxGeometry relative="1" as="geometry" />
        </mxCell>
        <mxCell id="nVU7OAm-_Q35DiYOs5Vs-24" style="edgeStyle=orthogonalEdgeStyle;rounded=0;orthogonalLoop=1;jettySize=auto;html=1;" parent="1" source="nVU7OAm-_Q35DiYOs5Vs-14" target="nVU7OAm-_Q35DiYOs5Vs-12" edge="1">
          <mxGeometry relative="1" as="geometry" />
        </mxCell>
        <mxCell id="nVU7OAm-_Q35DiYOs5Vs-30" value="&lt;font style=&quot;&quot;&gt;&lt;span style=&quot;font-size: 8px;&quot;&gt;t&lt;/span&gt;&lt;font style=&quot;font-size: 6px;&quot;&gt;надх&lt;/font&gt;&lt;span style=&quot;font-size: 8px;&quot;&gt;=exp(0.5)&lt;/span&gt;&lt;/font&gt;" style="text;html=1;strokeColor=none;fillColor=none;align=center;verticalAlign=middle;whiteSpace=wrap;rounded=0;glass=1;strokeWidth=1;" parent="1" vertex="1">
          <mxGeometry x="250" y="330" width="60" height="30" as="geometry" />
        </mxCell>
        <mxCell id="nVU7OAm-_Q35DiYOs5Vs-31" value="&lt;font style=&quot;&quot;&gt;&lt;span style=&quot;font-size: 8px;&quot;&gt;t&lt;/span&gt;&lt;font style=&quot;font-size: 6px;&quot;&gt;обр&lt;/font&gt;&lt;span style=&quot;font-size: 8px;&quot;&gt;=exp(0.3)&lt;/span&gt;&lt;/font&gt;" style="text;html=1;strokeColor=none;fillColor=none;align=center;verticalAlign=middle;whiteSpace=wrap;rounded=0;glass=1;strokeWidth=1;" parent="1" vertex="1">
          <mxGeometry x="414" y="300" width="90" height="30" as="geometry" />
        </mxCell>
        <mxCell id="nVU7OAm-_Q35DiYOs5Vs-32" value="&lt;font style=&quot;&quot;&gt;&lt;span style=&quot;font-size: 8px;&quot;&gt;t&lt;/span&gt;&lt;font style=&quot;font-size: 6px;&quot;&gt;обр&lt;/font&gt;&lt;span style=&quot;font-size: 8px;&quot;&gt;=&lt;/span&gt;&lt;/font&gt;&lt;span style=&quot;font-size: 8px;&quot;&gt;exp(0.3)&lt;/span&gt;" style="text;html=1;strokeColor=none;fillColor=none;align=center;verticalAlign=middle;whiteSpace=wrap;rounded=0;glass=1;strokeWidth=1;" parent="1" vertex="1">
          <mxGeometry x="414" y="420" width="90" height="30" as="geometry" />
        </mxCell>
        <mxCell id="nVU7OAm-_Q35DiYOs5Vs-33" value="&lt;span style=&quot;font-size: 8px;&quot;&gt;L&lt;/span&gt;&lt;font style=&quot;font-size: 6px;&quot;&gt;2max&lt;/font&gt;&lt;span style=&quot;font-size: 8px;&quot;&gt;=3&lt;/span&gt;" style="text;html=1;strokeColor=none;fillColor=none;align=center;verticalAlign=middle;whiteSpace=wrap;rounded=0;glass=1;strokeWidth=1;" parent="1" vertex="1">
          <mxGeometry x="329" y="430" width="90" height="30" as="geometry" />
        </mxCell>
        <mxCell id="nVU7OAm-_Q35DiYOs5Vs-34" value="&lt;span style=&quot;font-size: 8px;&quot;&gt;L&lt;/span&gt;&lt;font style=&quot;font-size: 6px;&quot;&gt;1&lt;/font&gt;&lt;font style=&quot;font-size: 6px;&quot;&gt;max&lt;/font&gt;&lt;span style=&quot;font-size: 8px;&quot;&gt;=3&lt;/span&gt;" style="text;html=1;strokeColor=none;fillColor=none;align=center;verticalAlign=middle;whiteSpace=wrap;rounded=0;glass=1;strokeWidth=1;" parent="1" vertex="1">
          <mxGeometry x="329" y="310" width="90" height="30" as="geometry" />
        </mxCell>
        <mxCell id="nVU7OAm-_Q35DiYOs5Vs-37" value="" style="endArrow=classic;html=1;rounded=0;fontSize=6;exitX=0.25;exitY=0;exitDx=0;exitDy=0;dashed=1;strokeColor=#B3B3B3;" parent="1" source="nVU7OAm-_Q35DiYOs5Vs-34" edge="1">
          <mxGeometry width="50" height="50" relative="1" as="geometry">
            <mxPoint x="270" y="400" as="sourcePoint" />
            <mxPoint x="290" y="480" as="targetPoint" />
            <Array as="points">
              <mxPoint x="310" y="380" />
            </Array>
          </mxGeometry>
        </mxCell>
        <mxCell id="nVU7OAm-_Q35DiYOs5Vs-38" value="" style="endArrow=classic;html=1;rounded=0;fontSize=6;exitX=0.25;exitY=0;exitDx=0;exitDy=0;dashed=1;strokeColor=#B3B3B3;" parent="1" source="nVU7OAm-_Q35DiYOs5Vs-33" edge="1">
          <mxGeometry width="50" height="50" relative="1" as="geometry">
            <mxPoint x="361.5" y="320" as="sourcePoint" />
            <mxPoint x="290" y="480" as="targetPoint" />
            <Array as="points">
              <mxPoint x="330" y="440" />
              <mxPoint x="300" y="460" />
            </Array>
          </mxGeometry>
        </mxCell>
        <mxCell id="nVU7OAm-_Q35DiYOs5Vs-39" value="&lt;span style=&quot;font-size: 8px;&quot;&gt;відмови&lt;br&gt;&lt;/span&gt;&lt;font style=&quot;font-size: 8px;&quot;&gt;D1 D2&lt;/font&gt;" style="text;html=1;strokeColor=none;fillColor=none;align=center;verticalAlign=middle;whiteSpace=wrap;rounded=0;glass=1;strokeWidth=1;" parent="1" vertex="1">
          <mxGeometry x="247" y="475" width="90" height="30" as="geometry" />
        </mxCell>
      </root>
    </mxGraphModel>
  </diagram>
</mxfile>
